<svg viewBox="0 0 200 280" xmlns="http://www.w3.org/2000/svg" role="img" aria-label="身分牌背面">
<defs>
<linearGradient id="bk-bg" x1="0" y1="0" x2="0" y2="1"><stop offset="0" stop-color="#1c2748"/><stop offset=".7" stop-color="#0b1022"/><stop offset="1" stop-color="#05070e"/></linearGradient>
<linearGradient id="bk-gold" x1="0" y1="0" x2="0" y2="1"><stop offset="0" stop-color="#f8e7ad"/><stop offset=".5" stop-color="#d6a84c"/><stop offset="1" stop-color="#8d6521"/></linearGradient>
<linearGradient id="bk-lake" x1="0" y1="0" x2="0" y2="1"><stop offset="0" stop-color="#1d3c63"/><stop offset="1" stop-color="#081322"/></linearGradient>
</defs>
<rect x="2" y="2" width="196" height="276" rx="14" fill="url(#bk-bg)" stroke="#8d6521" stroke-width="3"/>
<rect x="11" y="11" width="178" height="258" rx="9" fill="none" stroke="url(#bk-gold)" stroke-width="2"/>
<path d="M0-7L7 0 0 7-7 0z" transform="translate(11 11)" fill="url(#bk-gold)" stroke="#5a3a0c"/><path d="M0-7L7 0 0 7-7 0z" transform="translate(189 11)" fill="url(#bk-gold)" stroke="#5a3a0c"/><path d="M0-7L7 0 0 7-7 0z" transform="translate(11 269)" fill="url(#bk-gold)" stroke="#5a3a0c"/><path d="M0-7L7 0 0 7-7 0z" transform="translate(189 269)" fill="url(#bk-gold)" stroke="#5a3a0c"/>
<g fill="#f3e6c4"><circle cx="40" cy="44" r="1.3"/><circle cx="70" cy="30" r="1"/><circle cx="96" cy="52" r="1.4"/><circle cx="165" cy="100" r="1"/><circle cx="30" cy="96" r="1.1"/><circle cx="58" cy="70" r=".9"/><circle cx="170" cy="34" r="1.2"/><circle cx="110" cy="28" r=".9"/></g>
<circle cx="140" cy="62" r="17" fill="#f3e6c4"/><circle cx="133" cy="57" r="15" fill="#18223f"/>
<path d="M36 196 V150 H46 V140 H52 V146 H58 V140 H64 V150 H70 V116 H66 V104 H72 V110 H78 V104 H84 V110 H90 V104 H94 V116 H90 V150 H94 V122 L100 88 L106 122 V150 H110 V116 H106 V104 H112 V110 H118 V104 H124 V110 H130 V104 H134 V116 H130 V150 H136 V140 H142 V146 H148 V140 H154 V150 H164 V196Z" fill="#070a14" stroke="url(#bk-gold)" stroke-width="1.2" stroke-opacity=".75"/>
<g fill="#f3c969"><rect x="78" y="124" width="4" height="8" rx="2"/><rect x="118" y="124" width="4" height="8" rx="2"/><rect x="98" y="128" width="4" height="10" rx="2"/><rect x="48" y="160" width="4" height="6" rx="2"/><rect x="148" y="160" width="4" height="6" rx="2"/></g>
<path d="M92 196 V184 Q100 174 108 184 V196Z" fill="#f3c969" opacity=".55"/>
<rect x="13" y="196" width="174" height="50" fill="url(#bk-lake)"/>
<g stroke="url(#bk-gold)" stroke-opacity=".35" fill="none"><path d="M24 206 q10 -4 20 0 t20 0"/><path d="M110 214 q10 -4 20 0 t20 0 t20 0"/><path d="M40 226 q10 -4 20 0 t20 0 t20 0"/></g>
<text x="100" y="262" text-anchor="middle" font-family="Cinzel,'Noto Serif TC',serif" font-size="20" letter-spacing="5" fill="url(#bk-gold)" font-weight="800">AVALON</text>
</svg>