<svg viewBox="0 0 200 280" xmlns="http://www.w3.org/2000/svg" role="img" aria-label="派西維爾">
<defs>
<radialGradient id="c-percival-bg" cx="50%" cy="38%" r="80%"><stop offset="0" stop-color="#2f579f"/><stop offset="1" stop-color="#0a1531"/></radialGradient>
<radialGradient id="c-percival-glow" cx="50%" cy="50%" r="50%"><stop offset="0" stop-color="#9cc3ff" stop-opacity=".5"/><stop offset="1" stop-color="#9cc3ff" stop-opacity="0"/></radialGradient>
<linearGradient id="c-percival-gold" x1="0" y1="0" x2="0" y2="1"><stop offset="0" stop-color="#f8e7ad"/><stop offset=".5" stop-color="#d6a84c"/><stop offset="1" stop-color="#8d6521"/></linearGradient>
</defs>
<rect x="2" y="2" width="196" height="276" rx="14" fill="url(#c-percival-bg)" stroke="#8d6521" stroke-width="3"/>
<g fill="none" stroke="url(#c-percival-gold)"><rect x="11" y="11" width="178" height="258" rx="9" stroke-width="2"/><rect x="17" y="17" width="166" height="246" rx="6" stroke-width="1" stroke-dasharray="2 5" opacity=".6"/></g>
<path d="M0-7L7 0 0 7-7 0z" transform="translate(11 11)" fill="url(#c-percival-gold)" stroke="#5a3a0c"/><path d="M0-7L7 0 0 7-7 0z" transform="translate(189 11)" fill="url(#c-percival-gold)" stroke="#5a3a0c"/><path d="M0-7L7 0 0 7-7 0z" transform="translate(11 269)" fill="url(#c-percival-gold)" stroke="#5a3a0c"/><path d="M0-7L7 0 0 7-7 0z" transform="translate(189 269)" fill="url(#c-percival-gold)" stroke="#5a3a0c"/>
<g opacity=".22" stroke="#9cc3ff" stroke-width="1.2"><line x1="170.0" y1="118.0" x2="194.0" y2="118.0"/><line x1="164.7" y1="144.8" x2="186.8" y2="154.0"/><line x1="149.5" y1="167.5" x2="166.5" y2="184.5"/><line x1="126.8" y1="182.7" x2="136.0" y2="204.8"/><line x1="100.0" y1="188.0" x2="100.0" y2="212.0"/><line x1="73.2" y1="182.7" x2="64.0" y2="204.8"/><line x1="50.5" y1="167.5" x2="33.5" y2="184.5"/><line x1="35.3" y1="144.8" x2="13.2" y2="154.0"/><line x1="30.0" y1="118.0" x2="6.0" y2="118.0"/><line x1="35.3" y1="91.2" x2="13.2" y2="82.0"/><line x1="50.5" y1="68.5" x2="33.5" y2="51.5"/><line x1="73.2" y1="53.3" x2="64.0" y2="31.2"/><line x1="100.0" y1="48.0" x2="100.0" y2="24.0"/><line x1="126.8" y1="53.3" x2="136.0" y2="31.2"/><line x1="149.5" y1="68.5" x2="166.5" y2="51.5"/><line x1="164.7" y1="91.2" x2="186.8" y2="82.0"/></g>
<circle cx="100" cy="118" r="86" fill="url(#c-percival-glow)"/>
<circle cx="100" cy="118" r="64" fill="rgba(0,0,0,.28)" stroke="url(#c-percival-gold)" stroke-width="3"/>
<circle cx="100" cy="118" r="57" fill="none" stroke="url(#c-percival-gold)" stroke-width="1" opacity=".5"/>
<g stroke="#2b1d08" stroke-width="1.4" stroke-linejoin="round">
    <path d="M100 78 Q92 50 112 40 Q132 32 148 46 Q130 44 122 54 Q142 52 150 66 Q130 62 116 72 Q108 78 100 78Z" fill="#f1ead6"/>
    <path d="M68 162 V120 Q68 80 100 76 Q132 80 132 120 V162 Q100 172 68 162Z" fill="url(#c-percival-gold)"/>
    <path d="M100 78 V166" fill="none" stroke-width="2"/>
    <rect x="75" y="112" width="50" height="7" rx="2" fill="#140d04"/>
    <rect x="75" y="125" width="50" height="5" rx="2" fill="#140d04"/>
    <g fill="#140d04" stroke="none"><circle cx="84" cy="146" r="2"/><circle cx="92" cy="150" r="2"/><circle cx="108" cy="150" r="2"/><circle cx="116" cy="146" r="2"/></g></g>
<path d="M24 214 L12 222 L18 248Z M176 214 L188 222 L182 248Z" fill="#cdb98a" stroke="#8d6521" stroke-width="1.5"/>
<path d="M24 214 Q100 200 176 214 L182 248 Q100 234 18 248Z" fill="#efe1bb" stroke="#8d6521" stroke-width="2"/>
<text x="100" y="235.5" text-anchor="middle" font-size="19" font-weight="700" fill="#2b1d08" font-family="'Noto Serif TC','Songti TC',serif">派西維爾</text>
<text x="100" y="262" text-anchor="middle" font-size="9.5" letter-spacing="2" fill="#bcd3ff" font-family="'Noto Serif TC',serif">正義・亞瑟的騎士</text>
</svg>